<mxfile host="app.diagrams.net" modified="2023-11-24T11:42:13.782Z" agent="5.0 (Windows NT 10.0; Win64; x64) AppleWebKit/537.36 (KHTML, like Gecko) Chrome/119.0.0.0 Safari/537.36" etag="Gb0j326tK4t4fPhi402G" version="21.0.2" type="github">
  <diagram name="Page-1" id="pPS_hP2DEgWRu8ovYQSb">
    <mxGraphModel dx="1313" dy="1763" grid="1" gridSize="10" guides="1" tooltips="1" connect="1" arrows="1" fold="1" page="1" pageScale="1" pageWidth="850" pageHeight="1100" math="0" shadow="0">
      <root>
        <mxCell id="0" />
        <mxCell id="1" parent="0" />
        <mxCell id="0CpnknEz5siZGdE-Nhfz-11" value="" style="strokeWidth=1;shadow=0;dashed=0;align=center;html=1;shape=mxgraph.mockup.containers.browserWindow;rSize=0;strokeColor=#666666;strokeColor2=#008cff;strokeColor3=#c4c4c4;mainText=,;recursiveResize=0;" vertex="1" parent="1">
          <mxGeometry x="40" y="-980" width="760" height="720" as="geometry" />
        </mxCell>
        <mxCell id="0CpnknEz5siZGdE-Nhfz-12" value="Berry" style="strokeWidth=1;shadow=0;dashed=0;align=center;html=1;shape=mxgraph.mockup.containers.anchor;fontSize=17;fontColor=#666666;align=left;whiteSpace=wrap;" vertex="1" parent="0CpnknEz5siZGdE-Nhfz-11">
          <mxGeometry x="60" y="12" width="110" height="26" as="geometry" />
        </mxCell>
        <mxCell id="0CpnknEz5siZGdE-Nhfz-13" value="www.berry.com/home" style="strokeWidth=1;shadow=0;dashed=0;align=center;html=1;shape=mxgraph.mockup.containers.anchor;rSize=0;fontSize=17;fontColor=#666666;align=left;" vertex="1" parent="0CpnknEz5siZGdE-Nhfz-11">
          <mxGeometry x="130" y="60" width="250" height="26" as="geometry" />
        </mxCell>
        <mxCell id="0CpnknEz5siZGdE-Nhfz-16" value="" style="strokeWidth=1;shadow=0;dashed=0;align=center;html=1;shape=mxgraph.mockup.forms.rrect;rSize=0;strokeColor=#999999;fillColor=#ffffff;" vertex="1" parent="0CpnknEz5siZGdE-Nhfz-11">
          <mxGeometry x="249" y="230" width="290" height="370" as="geometry" />
        </mxCell>
        <mxCell id="0CpnknEz5siZGdE-Nhfz-17" value="Sign In" style="strokeWidth=1;shadow=0;dashed=0;align=center;html=1;shape=mxgraph.mockup.forms.anchor;fontSize=12;fontColor=#666666;align=left;resizeWidth=1;spacingLeft=0;" vertex="1" parent="0CpnknEz5siZGdE-Nhfz-16">
          <mxGeometry width="145" height="20" relative="1" as="geometry">
            <mxPoint x="10" y="62" as="offset" />
          </mxGeometry>
        </mxCell>
        <mxCell id="0CpnknEz5siZGdE-Nhfz-18" value="" style="shape=line;strokeColor=#ddeeff;strokeWidth=2;html=1;resizeWidth=1;" vertex="1" parent="0CpnknEz5siZGdE-Nhfz-16">
          <mxGeometry width="261" height="10" relative="1" as="geometry">
            <mxPoint x="10" y="80" as="offset" />
          </mxGeometry>
        </mxCell>
        <mxCell id="0CpnknEz5siZGdE-Nhfz-19" value="User Name:" style="strokeWidth=1;shadow=0;dashed=0;align=center;html=1;shape=mxgraph.mockup.forms.anchor;fontSize=12;fontColor=#666666;align=left;resizeWidth=1;spacingLeft=0;" vertex="1" parent="0CpnknEz5siZGdE-Nhfz-16">
          <mxGeometry width="145" height="20" relative="1" as="geometry">
            <mxPoint x="10" y="98" as="offset" />
          </mxGeometry>
        </mxCell>
        <mxCell id="0CpnknEz5siZGdE-Nhfz-20" value="johndoe" style="strokeWidth=1;shadow=0;dashed=0;align=center;html=1;shape=mxgraph.mockup.forms.rrect;rSize=0;strokeColor=#999999;fontColor=#666666;align=left;spacingLeft=5;resizeWidth=1;" vertex="1" parent="0CpnknEz5siZGdE-Nhfz-16">
          <mxGeometry width="217.5" height="25" relative="1" as="geometry">
            <mxPoint x="10" y="117" as="offset" />
          </mxGeometry>
        </mxCell>
        <mxCell id="0CpnknEz5siZGdE-Nhfz-21" value="Password:" style="strokeWidth=1;shadow=0;dashed=0;align=center;html=1;shape=mxgraph.mockup.forms.anchor;fontSize=12;fontColor=#666666;align=left;resizeWidth=1;spacingLeft=0;" vertex="1" parent="0CpnknEz5siZGdE-Nhfz-16">
          <mxGeometry width="145" height="20" relative="1" as="geometry">
            <mxPoint x="10" y="150" as="offset" />
          </mxGeometry>
        </mxCell>
        <mxCell id="0CpnknEz5siZGdE-Nhfz-22" value="********" style="strokeWidth=1;shadow=0;dashed=0;align=center;html=1;shape=mxgraph.mockup.forms.rrect;rSize=0;strokeColor=#999999;fontColor=#666666;align=left;spacingLeft=5;resizeWidth=1;" vertex="1" parent="0CpnknEz5siZGdE-Nhfz-16">
          <mxGeometry width="217.5" height="25" relative="1" as="geometry">
            <mxPoint x="10" y="170" as="offset" />
          </mxGeometry>
        </mxCell>
        <mxCell id="0CpnknEz5siZGdE-Nhfz-23" value="SIGN IN" style="strokeWidth=1;shadow=0;dashed=0;align=center;html=1;shape=mxgraph.mockup.forms.rrect;rSize=5;strokeColor=none;fontColor=#ffffff;fillColor=#66bbff;fontSize=16;fontStyle=1;" vertex="1" parent="0CpnknEz5siZGdE-Nhfz-16">
          <mxGeometry y="1" width="80" height="30" relative="1" as="geometry">
            <mxPoint x="20" y="-150" as="offset" />
          </mxGeometry>
        </mxCell>
        <mxCell id="0CpnknEz5siZGdE-Nhfz-24" value="Forgot Password?" style="strokeWidth=1;shadow=0;dashed=0;align=center;html=1;shape=mxgraph.mockup.forms.anchor;fontSize=12;fontColor=#9999ff;align=left;spacingLeft=0;fontStyle=4;resizeWidth=1;" vertex="1" parent="0CpnknEz5siZGdE-Nhfz-16">
          <mxGeometry y="1" width="217.5" height="20" relative="1" as="geometry">
            <mxPoint x="10" y="-110" as="offset" />
          </mxGeometry>
        </mxCell>
        <mxCell id="0CpnknEz5siZGdE-Nhfz-25" value="" style="shape=line;strokeColor=#ddeeff;strokeWidth=2;html=1;resizeWidth=1;" vertex="1" parent="0CpnknEz5siZGdE-Nhfz-16">
          <mxGeometry y="1" width="261" height="10" relative="1" as="geometry">
            <mxPoint x="10" y="-90" as="offset" />
          </mxGeometry>
        </mxCell>
        <mxCell id="0CpnknEz5siZGdE-Nhfz-26" value="New User" style="strokeWidth=1;shadow=0;dashed=0;align=center;html=1;shape=mxgraph.mockup.forms.anchor;fontSize=12;fontColor=#666666;align=left;spacingLeft=0;resizeWidth=1;" vertex="1" parent="0CpnknEz5siZGdE-Nhfz-16">
          <mxGeometry y="1" width="217.5" height="20" relative="1" as="geometry">
            <mxPoint x="10" y="-70" as="offset" />
          </mxGeometry>
        </mxCell>
        <mxCell id="0CpnknEz5siZGdE-Nhfz-27" value="SIGN UP" style="strokeWidth=1;shadow=0;dashed=0;align=center;html=1;shape=mxgraph.mockup.forms.rrect;rSize=5;strokeColor=none;fontColor=#ffffff;fillColor=#66bbff;fontSize=16;fontStyle=1;" vertex="1" parent="0CpnknEz5siZGdE-Nhfz-16">
          <mxGeometry y="1" width="80" height="30" relative="1" as="geometry">
            <mxPoint x="20" y="-50" as="offset" />
          </mxGeometry>
        </mxCell>
        <mxCell id="0CpnknEz5siZGdE-Nhfz-42" value="&lt;b&gt;&lt;font style=&quot;font-size: 15px;&quot;&gt;Welcome to Berry&lt;/font&gt;&lt;/b&gt;" style="text;html=1;strokeColor=none;fillColor=none;align=center;verticalAlign=middle;whiteSpace=wrap;rounded=0;" vertex="1" parent="0CpnknEz5siZGdE-Nhfz-16">
          <mxGeometry x="55" y="36" width="180" height="30" as="geometry" />
        </mxCell>
        <mxCell id="0CpnknEz5siZGdE-Nhfz-44" value="" style="ellipse;whiteSpace=wrap;html=1;fillColor=#bb41e7;gradientColor=none;" vertex="1" parent="0CpnknEz5siZGdE-Nhfz-16">
          <mxGeometry x="122" y="4" width="46" height="35" as="geometry" />
        </mxCell>
        <mxCell id="0CpnknEz5siZGdE-Nhfz-43" value="" style="ellipse;whiteSpace=wrap;html=1;fillColor=none;" vertex="1" parent="0CpnknEz5siZGdE-Nhfz-16">
          <mxGeometry x="123" y="4" width="44" height="30" as="geometry" />
        </mxCell>
        <mxCell id="0CpnknEz5siZGdE-Nhfz-47" value="&lt;b&gt;&lt;font color=&quot;#ffffff&quot;&gt;Be&lt;u&gt;rr&lt;/u&gt;y&lt;/font&gt;&lt;/b&gt;" style="text;html=1;strokeColor=none;fillColor=none;align=center;verticalAlign=middle;whiteSpace=wrap;rounded=0;" vertex="1" parent="0CpnknEz5siZGdE-Nhfz-16">
          <mxGeometry x="115" y="4" width="60" height="30" as="geometry" />
        </mxCell>
        <mxCell id="0CpnknEz5siZGdE-Nhfz-31" value="" style="rounded=0;whiteSpace=wrap;html=1;fillColor=#BB41E7;strokeColor=#C94DFF;shadow=1;" vertex="1" parent="0CpnknEz5siZGdE-Nhfz-11">
          <mxGeometry y="110" width="760" height="60" as="geometry" />
        </mxCell>
        <mxCell id="0CpnknEz5siZGdE-Nhfz-33" value="" style="ellipse;whiteSpace=wrap;html=1;fillStyle=dots;fillColor=none;" vertex="1" parent="0CpnknEz5siZGdE-Nhfz-11">
          <mxGeometry x="20" y="116" width="60" height="50" as="geometry" />
        </mxCell>
        <mxCell id="0CpnknEz5siZGdE-Nhfz-34" value="&lt;font size=&quot;1&quot; data-font-src=&quot;https://fonts.googleapis.com/css?family=Poppins&quot; face=&quot;Poppins&quot; color=&quot;#ffffff&quot;&gt;&lt;b style=&quot;font-size: 18px;&quot;&gt;Be&lt;u&gt;rr&lt;/u&gt;y&lt;/b&gt;&lt;/font&gt;" style="text;html=1;strokeColor=none;fillColor=none;align=center;verticalAlign=middle;whiteSpace=wrap;rounded=0;" vertex="1" parent="0CpnknEz5siZGdE-Nhfz-11">
          <mxGeometry x="20" y="125" width="60" height="30" as="geometry" />
        </mxCell>
        <mxCell id="0CpnknEz5siZGdE-Nhfz-35" value="Section&amp;nbsp;" style="strokeWidth=1;shadow=0;dashed=0;align=center;html=1;shape=mxgraph.mockup.buttons.button;strokeColor=#666666;fontColor=#ffffff;mainText=;buttonStyle=round;fontSize=17;fontStyle=1;fillColor=#008cff;whiteSpace=wrap;" vertex="1" parent="0CpnknEz5siZGdE-Nhfz-11">
          <mxGeometry x="420" y="131" width="70" height="24" as="geometry" />
        </mxCell>
        <mxCell id="0CpnknEz5siZGdE-Nhfz-36" value="Section&amp;nbsp;" style="strokeWidth=1;shadow=0;dashed=0;align=center;html=1;shape=mxgraph.mockup.buttons.button;strokeColor=#666666;fontColor=#ffffff;mainText=;buttonStyle=round;fontSize=17;fontStyle=1;fillColor=#008cff;whiteSpace=wrap;" vertex="1" parent="0CpnknEz5siZGdE-Nhfz-11">
          <mxGeometry x="500" y="131" width="70" height="24" as="geometry" />
        </mxCell>
        <mxCell id="0CpnknEz5siZGdE-Nhfz-37" value="Section&amp;nbsp;" style="strokeWidth=1;shadow=0;dashed=0;align=center;html=1;shape=mxgraph.mockup.buttons.button;strokeColor=#666666;fontColor=#ffffff;mainText=;buttonStyle=round;fontSize=17;fontStyle=1;fillColor=#008cff;whiteSpace=wrap;" vertex="1" parent="0CpnknEz5siZGdE-Nhfz-11">
          <mxGeometry x="580" y="131" width="70" height="24" as="geometry" />
        </mxCell>
        <mxCell id="0CpnknEz5siZGdE-Nhfz-38" value="Section&amp;nbsp;" style="strokeWidth=1;shadow=0;dashed=0;align=center;html=1;shape=mxgraph.mockup.buttons.button;strokeColor=#666666;fontColor=#ffffff;mainText=;buttonStyle=round;fontSize=17;fontStyle=1;fillColor=#008cff;whiteSpace=wrap;" vertex="1" parent="0CpnknEz5siZGdE-Nhfz-11">
          <mxGeometry x="660" y="131" width="70" height="24" as="geometry" />
        </mxCell>
        <mxCell id="0CpnknEz5siZGdE-Nhfz-39" value="" style="ellipse;whiteSpace=wrap;html=1;fillColor=none;" vertex="1" parent="0CpnknEz5siZGdE-Nhfz-11">
          <mxGeometry x="20" y="116" width="60" height="44" as="geometry" />
        </mxCell>
        <mxCell id="0CpnknEz5siZGdE-Nhfz-40" value="Sign In" style="strokeWidth=1;shadow=0;dashed=0;align=center;html=1;shape=mxgraph.mockup.buttons.button;strokeColor=#666666;fontColor=#ffffff;mainText=;buttonStyle=round;fontSize=17;fontStyle=1;fillColor=#008cff;whiteSpace=wrap;" vertex="1" parent="0CpnknEz5siZGdE-Nhfz-11">
          <mxGeometry x="100" y="129" width="70" height="24" as="geometry" />
        </mxCell>
        <mxCell id="0CpnknEz5siZGdE-Nhfz-41" value="" style="rounded=0;whiteSpace=wrap;html=1;strokeColor=none;fillColor=#BDC7C7;" vertex="1" parent="0CpnknEz5siZGdE-Nhfz-11">
          <mxGeometry y="660" width="760" height="60" as="geometry" />
        </mxCell>
        <mxCell id="0CpnknEz5siZGdE-Nhfz-49" value="&lt;font color=&quot;#ffffff&quot; style=&quot;font-size: 15px;&quot;&gt;Footer&lt;/font&gt;" style="text;html=1;strokeColor=none;fillColor=none;align=center;verticalAlign=middle;whiteSpace=wrap;rounded=0;" vertex="1" parent="0CpnknEz5siZGdE-Nhfz-11">
          <mxGeometry x="20" y="675" width="100" height="30" as="geometry" />
        </mxCell>
        <mxCell id="0CpnknEz5siZGdE-Nhfz-14" value="&lt;font style=&quot;font-size: 18px;&quot;&gt;Home Page&lt;/font&gt;" style="text;html=1;strokeColor=none;fillColor=none;align=center;verticalAlign=middle;whiteSpace=wrap;rounded=0;" vertex="1" parent="1">
          <mxGeometry x="175" y="-1060" width="500" height="30" as="geometry" />
        </mxCell>
        <mxCell id="0CpnknEz5siZGdE-Nhfz-15" style="edgeStyle=orthogonalEdgeStyle;rounded=0;orthogonalLoop=1;jettySize=auto;html=1;exitX=0.5;exitY=1;exitDx=0;exitDy=0;entryX=0.5;entryY=0.667;entryDx=0;entryDy=0;entryPerimeter=0;" edge="1" parent="1" source="0CpnknEz5siZGdE-Nhfz-14" target="0CpnknEz5siZGdE-Nhfz-14">
          <mxGeometry relative="1" as="geometry" />
        </mxCell>
      </root>
    </mxGraphModel>
  </diagram>
</mxfile>
